<svg width="20" height="20" viewBox="0 0 20 20" fill="none" xmlns="http://www.w3.org/2000/svg">
<path d="M16.875 3.125H3.125C2.79348 3.125 2.47554 3.2567 2.24112 3.49112C2.0067 3.72554 1.875 4.04348 1.875 4.375V15.625C1.875 15.9565 2.0067 16.2745 2.24112 16.5089C2.47554 16.7433 2.79348 16.875 3.125 16.875H16.875C17.2065 16.875 17.5245 16.7433 17.7589 16.5089C17.9933 16.2745 18.125 15.9565 18.125 15.625V4.375C18.125 4.04348 17.9933 3.72554 17.7589 3.49112C17.5245 3.2567 17.2065 3.125 16.875 3.125ZM5 7.1875C5 7.35326 4.93415 7.51223 4.81694 7.62944C4.69973 7.74665 4.54076 7.8125 4.375 7.8125C4.20924 7.8125 4.05027 7.74665 3.93306 7.62944C3.81585 7.51223 3.75 7.35326 3.75 7.1875V6.25C3.75 6.08424 3.81585 5.92527 3.93306 5.80806C4.05027 5.69085 4.20924 5.625 4.375 5.625H10C10.1658 5.625 10.3247 5.69085 10.4419 5.80806C10.5592 5.92527 10.625 6.08424 10.625 6.25V7.1875C10.625 7.35326 10.5592 7.51223 10.4419 7.62944C10.3247 7.74665 10.1658 7.8125 10 7.8125C9.83424 7.8125 9.67527 7.74665 9.55806 7.62944C9.44085 7.51223 9.375 7.35326 9.375 7.1875V6.875H7.8125V10.625H8.125C8.29076 10.625 8.44973 10.6908 8.56694 10.8081C8.68415 10.9253 8.75 11.0842 8.75 11.25C8.75 11.4158 8.68415 11.5747 8.56694 11.6919C8.44973 11.8092 8.29076 11.875 8.125 11.875H6.25C6.08424 11.875 5.92527 11.8092 5.80806 11.6919C5.69085 11.5747 5.625 11.4158 5.625 11.25C5.625 11.0842 5.69085 10.9253 5.80806 10.8081C5.92527 10.6908 6.08424 10.625 6.25 10.625H6.5625V6.875H5V7.1875ZM15.625 14.375H6.25C6.08424 14.375 5.92527 14.3092 5.80806 14.1919C5.69085 14.0747 5.625 13.9158 5.625 13.75C5.625 13.5842 5.69085 13.4253 5.80806 13.3081C5.92527 13.1908 6.08424 13.125 6.25 13.125H15.625C15.7908 13.125 15.9497 13.1908 16.0669 13.3081C16.1842 13.4253 16.25 13.5842 16.25 13.75C16.25 13.9158 16.1842 14.0747 16.0669 14.1919C15.9497 14.3092 15.7908 14.375 15.625 14.375ZM15.625 11.875H10.625C10.4592 11.875 10.3003 11.8092 10.1831 11.6919C10.0658 11.5747 10 11.4158 10 11.25C10 11.0842 10.0658 10.9253 10.1831 10.8081C10.3003 10.6908 10.4592 10.625 10.625 10.625H15.625C15.7908 10.625 15.9497 10.6908 16.0669 10.8081C16.1842 10.9253 16.25 11.0842 16.25 11.25C16.25 11.4158 16.1842 11.5747 16.0669 11.6919C15.9497 11.8092 15.7908 11.875 15.625 11.875ZM15.625 9.375H11.875C11.7092 9.375 11.5503 9.30915 11.4331 9.19194C11.3158 9.07473 11.25 8.91576 11.25 8.75C11.25 8.58424 11.3158 8.42527 11.4331 8.30806C11.5503 8.19085 11.7092 8.125 11.875 8.125H15.625C15.7908 8.125 15.9497 8.19085 16.0669 8.30806C16.1842 8.42527 16.25 8.58424 16.25 8.75C16.25 8.91576 16.1842 9.07473 16.0669 9.19194C15.9497 9.30915 15.7908 9.375 15.625 9.375Z" fill="white"/>
</svg>
