<svg width="31" height="31" viewBox="0 0 31 31" fill="none" xmlns="http://www.w3.org/2000/svg">
<path d="M19.9879 16.1806C19.9879 16.433 19.8876 16.6751 19.7091 16.8536C19.5306 17.0321 19.2885 17.1324 19.0361 17.1324H16.1807V19.9878C16.1807 20.2402 16.0804 20.4823 15.9019 20.6608C15.7234 20.8393 15.4813 20.9396 15.2289 20.9396C14.9765 20.9396 14.7344 20.8393 14.5559 20.6608C14.3774 20.4823 14.2771 20.2402 14.2771 19.9878V17.1324H11.4217C11.1693 17.1324 10.9272 17.0321 10.7487 16.8536C10.5702 16.6751 10.4699 16.433 10.4699 16.1806C10.4699 15.9281 10.5702 15.686 10.7487 15.5075C10.9272 15.329 11.1693 15.2288 11.4217 15.2288H14.2771V12.3733C14.2771 12.1209 14.3774 11.8788 14.5559 11.7003C14.7344 11.5218 14.9765 11.4215 15.2289 11.4215C15.4813 11.4215 15.7234 11.5218 15.9019 11.7003C16.0804 11.8788 16.1807 12.1209 16.1807 12.3733V15.2288H19.0361C19.2885 15.2288 19.5306 15.329 19.7091 15.5075C19.8876 15.686 19.9879 15.9281 19.9879 16.1806ZM27.6023 9.51794V22.8432C27.6023 23.6005 27.3015 24.3268 26.766 24.8623C26.2305 25.3977 25.5042 25.6986 24.7469 25.6986H5.71088C4.95357 25.6986 4.22729 25.3977 3.6918 24.8623C3.15631 24.3268 2.85547 23.6005 2.85547 22.8432V9.51794C2.85547 8.76064 3.15631 8.03436 3.6918 7.49887C4.22729 6.96337 4.95357 6.66254 5.71088 6.66254H9.00887L10.3509 4.65423C10.5244 4.39413 10.7594 4.18079 11.0349 4.03304C11.3105 3.8853 11.6182 3.80771 11.9309 3.80713H18.5269C18.8396 3.80771 19.1473 3.8853 19.4229 4.03304C19.6984 4.18079 19.9334 4.39413 20.1069 4.65423L21.4489 6.66254H24.7469C25.5042 6.66254 26.2305 6.96337 26.766 7.49887C27.3015 8.03436 27.6023 8.76064 27.6023 9.51794ZM25.6987 9.51794C25.6987 9.26551 25.5984 9.02341 25.4199 8.84492C25.2415 8.66642 24.9994 8.56614 24.7469 8.56614H20.9397C20.783 8.56624 20.6286 8.52763 20.4904 8.45375C20.3522 8.37986 20.2343 8.27297 20.1473 8.14259L18.5269 5.71073H11.9309L10.3105 8.14259C10.2235 8.27297 10.1056 8.37986 9.96739 8.45375C9.82916 8.52763 9.67482 8.56624 9.51808 8.56614H5.71088C5.45844 8.56614 5.21635 8.66642 5.03785 8.84492C4.85935 9.02341 4.75907 9.26551 4.75907 9.51794V22.8432C4.75907 23.0956 4.85935 23.3377 5.03785 23.5162C5.21635 23.6947 5.45844 23.795 5.71088 23.795H24.7469C24.9994 23.795 25.2415 23.6947 25.4199 23.5162C25.5984 23.3377 25.6987 23.0956 25.6987 22.8432V9.51794Z" fill="#343330"/>
</svg>
